<?xml version="1.0" encoding="UTF-8" standalone="no"?>
<!-- Created with Inkscape (http://www.inkscape.org/) -->

<svg
    id="app-icon"
    role="img"
    version="1.1"
    width="480.59122"
    height="594.85394"
    aria-labelledby="app-icon-title"
    viewBox="0 0 480.59121 594.85395"
    xmlns="http://www.w3.org/2000/svg"
    xmlns:svg="http://www.w3.org/2000/svg"
  >
    <title id="app-icon-title">BibleTime</title>
    <defs id="defs1">
      <rect id="rect1" x="687.4906" y="394.79657" width="1099.3043" height="490.09229" />
    </defs>
    <g id="g1" transform="translate(-269.16812,-203.00518)">
      <g id="g26">
        <path
          id="path17"
          style="display: inline; fill: #d1a137"
          d="m 292.95287,780.40477 c 8.81933,-17.6964 20.66874,4.37353 17.73928,-18.01075 l 14.02665,-38.4057 V 497.72179 l 19.56966,-201.59175 14.91367,-12.84646 c 18.8192,-16.21063 -47.06928,-44.08767 8.71655,-21.24212 27.58602,11.2971 -83.39449,-34.73568 37.22391,-34.37328 142.48784,0.4281 139.13036,-12.33317 167.35741,-7.01551 67.2006,12.65985 56.64806,50.78539 72.4122,100.51357 4.43508,13.99052 -0.24742,13.4298 -0.31128,29.6406 -0.20196,51.2657 16.45042,55.74005 -37.39797,78.86976 -5.31759,2.28408 -26.33784,29.15335 -25.913,29.5514 0.42484,0.39805 35.90321,31.71094 41.40321,33.18654 21.21295,5.69124 29.60263,5.81382 46.02368,17.37122 17.49749,12.31501 6.46636,19.15806 14.97769,36.75583 22.20932,45.91934 40.83953,101.05796 14.68384,148.96771 -12.71785,23.29545 -25.2506,30.9818 -47.35145,45.74912 -34.24583,22.88235 -52.92744,33.91761 -104.50985,37.27941 -19.69802,1.28378 -265.48005,25.77661 -253.5642,1.86694 z m 204.05568,-2.49226 c 26.16823,-5.16048 71.87606,-9.46508 92.62222,-26.40648 31.06735,-25.36972 47.73018,-49.82135 57.05386,-87.03295 3.4751,-13.86941 5.25252,-33.79577 4.73824,-50.97416 -0.39438,-13.17364 0.72894,-26.58886 -1.3647,-34.522 -10.07758,-38.18559 -37.37537,-86.49983 -76.62911,-95.81815 -20.65832,-4.90401 -48.35462,-0.64148 -109.66624,-0.99678 L 364.72009,481.58803 356.56239,585 l -0.5,79.58803 -8.16722,24.52467 c -4.81841,14.46881 9.77474,30.94401 9.75711,46.50098 -0.0178,15.68047 1.57657,17.92687 11.89257,28.95471 6.98985,7.47216 30.74373,15.21482 41.35002,17.57388 9.16111,2.03762 74.58536,-1.95633 86.11368,-4.22976 z M 473,751.01207 c 0,-0.59321 1.09185,-3.23323 2.42634,-5.86671 6.21413,-12.26299 7.46819,-28.35403 3.1943,-40.98656 -4.29152,-12.68464 -14.6263,-25.85939 -26.37064,-33.6172 -2.3375,-1.54406 -4.25,-3.20065 -4.25,-3.68133 0,-0.49267 30.21216,-0.7619 69.25,-0.61712 l 69.25,0.25685 -0.27179,2.43951 c -0.36242,3.25305 -8.14705,16.76353 -15.01583,26.06049 -6.87957,9.31155 -22.42237,24.90567 -31.71238,31.81708 -13.98731,10.40602 -34.33945,19.40605 -51,22.553 -13.82407,2.61117 -15.5,2.78871 -15.5,1.64199 z m -55.67577,-1.64961 c -5.73849,-2.03337 -12.89103,-8.59462 -16.06737,-14.73911 -2.19496,-4.24604 -2.65776,-6.49325 -2.70267,-13.12335 -0.0461,-6.80792 0.36396,-8.85151 2.75196,-13.71444 6.72084,-13.68631 21.19062,-19.88776 35.26571,-15.11417 6.77393,2.29738 16.45937,11.98282 18.75675,18.75675 3.72391,10.98008 0.85269,22.521 -7.74089,31.11457 -7.96979,7.9698 -19.61318,10.59359 -30.26349,6.81975 z M 537.52564,454.75569 c 25.20152,-5.47847 30.20692,-0.97612 45.6427,-15.82926 12.81755,-12.33373 30.72192,-24.75876 35.48529,-42.76015 2.32621,-8.79103 7.75114,-36.58865 7.76685,-50.66628 0.0213,-19.08427 -6.74994,-49.75251 -14.06265,-64.34452 -10.32913,-20.61109 -31.31484,-25.34469 -56.76585,-32.32708 -17.67158,-4.84813 -62.32125,-28.62368 -120.20993,-4.18643 l -55.84658,11.05974 -11.06111,99.40342 -12.76282,93.44743 105.30128,15.30939 c 42.18537,-0.005 49.64169,-3.26485 56.94316,-4.85209 z"
        />
        <path
          id="path15"
          style="display: inline; fill: #0f356e"
          d="m 269.16867,796.77511 c 0.18223,-0.71942 8.76883,-16.46092 19.08133,-34.9811 L 307,728.12094 V 500.27824 272.43553 L 288.5,238.5674 C 278.325,219.93992 270,204.31693 270,203.84963 c 0,-1.22608 243.50364,-1.07096 262.17045,0.16702 30.63463,2.03168 57.16317,7.21461 79.32955,15.49877 50.67063,18.93693 83.50498,53.68612 93.05762,98.48458 2.29102,10.74405 2.98303,30.11003 1.47331,41.23071 -6.08199,44.80023 -31.61942,74.46182 -82.53093,95.85927 -4.95,2.08042 -9,4.33133 -9,5.00201 0,0.70652 4.41639,2.38057 10.5,3.98007 23.30541,6.12745 47.7556,16.86019 65.4735,28.74047 17.53929,11.76051 34.03153,29.98227 43.19423,47.72396 12.35238,23.91784 18.02448,55.24553 15.50469,85.63427 -2.1068,25.40817 -7.53653,44.97702 -18.6817,67.32924 -17.38849,34.8735 -43.57384,60.26425 -80.99072,78.53303 -25.62073,12.50931 -48.10365,18.77821 -86.5,24.11875 -13.11302,1.82389 -294.28653,2.42037 -293.83133,0.62333 z m 207.85756,-19.82796 c 27.2306,-3.38337 48.18162,-11.0989 70.081,-25.80838 20.62365,-13.8526 37.80629,-31.34956 52.18416,-53.13877 21.26285,-32.22319 30.68916,-63.60706 29.4348,-98 -1.06283,-29.14139 -10.32756,-51.99418 -29.08398,-71.73981 C 580.90645,508.53631 558.60716,497.90672 526.76822,493.52275 517.39758,492.23249 505.14335,492.01573 454,492.2356 l -61.5,0.2644 -0.5,92 -0.5,92 -4.91628,5.99306 c -9.99307,12.18179 -14.08431,25.07946 -13.31889,41.98792 0.75606,16.70172 4.98921,26.57869 16.03439,37.41213 8.36576,8.20538 15.90291,12.04304 28.70078,14.61345 8.09422,1.6257 47.14217,1.91716 59.02623,0.44059 z M 519,445.28109 c 51.89774,-11.72538 81.35625,-41.91039 87.09256,-89.24037 1.41856,-11.7045 0.2717,-25.77653 -3.04641,-37.37934 -8.37958,-29.30187 -32.10104,-51.40758 -65.64576,-61.1744 -17.85466,-5.19853 -23.24544,-5.52518 -86.56034,-5.24508 L 392.5,252.5 392.24216,349 c -0.14181,53.075 -0.0345,97.08588 0.23855,97.80196 0.40189,1.05409 11.58868,1.23757 58.75784,0.96373 55.28784,-0.32097 58.74632,-0.44778 67.76145,-2.4846 z"
        />
      </g>
    </g>
  </svg>
